<svg xmlns="http://www.w3.org/2000/svg" xmlns:xlink="http://www.w3.org/1999/xlink" version="1.1" id="design" viewBox="0 0 100 100" style="width: 200px; height: 200px; transform-origin: 50% 50%; transform: scaleX(1) scaleY(1) rotate(0deg);" xml:space="preserve" preserveAspectRatio="xMidYMid meet"><style type="text/css">
	.st0{fill:#D5FFA2;}
	.st1{fill:#333333;}
</style><g><path class="st0" d="M33.4,20.8c-0.2-0.3-0.5-0.5-0.9-0.5H21.4c-0.6,0-1.1,0.5-1.1,1.1v7.3c0,0.6,0.5,1.1,1.1,1.1h8   c0.4,0,0.8-0.2,1-0.6l3.2-7.3C33.7,21.5,33.6,21.1,33.4,20.8z" style="fill:#FEC4EB"/><path class="st0" d="M71.5,37.3H46.3c-0.6,0-1.1,0.5-1.1,1.1v7.1c0,0.6,0.5,1.1,1.1,1.1h25.2c0.6,0,1.1-0.5,1.1-1.1v-7.1   C72.6,37.8,72.1,37.3,71.5,37.3z" style="fill:#FEC4EB"/><g><path class="st1" d="M78.6,20.3H21.4c-0.6,0-1.1,0.5-1.1,1.1v57.2c0,0.6,0.5,1.1,1.1,1.1h57.2c0.6,0,1.1-0.5,1.1-1.1V21.4    C79.7,20.8,79.2,20.3,78.6,20.3z M77.6,22.4v5.2H22.4v-5.2H77.6z M22.4,77.6V29.7h55.1v47.8H22.4z"/><path class="st1" d="M71.5,56H53.6c-0.6,0-1.1,0.5-1.1,1.1v14.6c0,0.6,0.5,1.1,1.1,1.1h17.9c0.6,0,1.1-0.5,1.1-1.1V57    C72.6,56.4,72.1,56,71.5,56z M70.5,70.6H54.7V58.1h15.8V70.6z"/><path class="st1" d="M47,70.6H28.5c-0.6,0-1.1,0.5-1.1,1.1s0.5,1.1,1.1,1.1H47c0.6,0,1.1-0.5,1.1-1.1S47.5,70.6,47,70.6z"/><path class="st1" d="M47,63.3H28.5c-0.6,0-1.1,0.5-1.1,1.1s0.5,1.1,1.1,1.1H47c0.6,0,1.1-0.5,1.1-1.1S47.5,63.3,47,63.3z"/><path class="st1" d="M47,56.1H28.5c-0.6,0-1.1,0.5-1.1,1.1s0.5,1.1,1.1,1.1H47c0.6,0,1.1-0.5,1.1-1.1S47.5,56.1,47,56.1z"/><path class="st1" d="M30.3,48.4c0.3,0,0.5-0.1,0.7-0.3l2.1-2.1c0.8,0.5,1.6,0.8,2.6,0.8c2.7,0,4.9-2.2,4.9-4.9s-2.2-4.9-4.9-4.9    s-4.9,2.2-4.9,4.9c0,1,0.3,1.8,0.8,2.6l-2.1,2.1c-0.4,0.4-0.4,1.1,0,1.5C29.7,48.3,30,48.4,30.3,48.4z M35.7,39.2    c1.5,0,2.7,1.2,2.7,2.7s-1.2,2.7-2.7,2.7s-2.7-1.2-2.7-2.7S34.2,39.2,35.7,39.2z"/></g></g></svg>